#!OML:ASF F:\VICON\USERDATA\INSTALL\rory3\rory3.ASF
:FULLY-SPECIFIED
:DEGREES
67
root 1.4426912723471288 17.934283954147332 48.62088752528857 -2.6980080394295403 -4.2521279282545965 -5.5723958233216155
lfemur -0.9636069841633592 -0.358770907719983 -12.01358022702259
ltibia 54.805542095329486
lfoot -6.469424144007986 1.5924266280863337
ltoes -5.981903765357293
rfemur -16.180893544897156 5.56528724698292 30.347038955785983
rtibia 25.6358039523261
rfoot -18.508911607676033 -10.26132946750841
rtoes 3.042669867006602
lowerback 1.0 -0.19672877532084954 4.182691228608144
upperback 0.2255316423808837 0.6394528157813475 3.05389518442746
thorax -5.029573329880769 0.2978737098282294 1.956980958920425
lowerneck -17.160242961152655 -2.747970741843081 -1.6358005046064383
upperneck 21.675169735313034 -3.4348815134666966 0.3412570540981872
head 9.762795069767865 -1.6998041701406168 -0.012317289772805995
lclavicle -1.0942872287690107e-15 -4.178421692105766e-16
lhumerus -25.46021300962343 -4.963322175705374 83.84509988598322
lradius 24.08710219108385
lwrist 5.745174213385831
lhand -27.077142869733095 23.4098886027946
lfingers nan
lthumb -0.4969983767324234 53.3366473845895
rclavicle -1.2364358483254956e-15 -5.217255451952839e-16
rhumerus -30.954164622276906 -23.932347742498806 -77.36100805887186
rradius 28.4818428579389
rwrist 4.812359420710801
rhand -17.552871259119502 1.0
rfingers nan
rthumb 9.093343697807818 -7.726254463590648
68
root 1.370334541168019 17.950749415576794 48.391655761596894 -2.515903141094832 -3.1992359226249274 -8.082849132620696
lfemur -6.271475612118729 0.09008737559041613 -9.288829204218029
ltibia 59.55348486185166
lfoot -6.573134765977136 1.351023998937385
ltoes -7.199036342404513
rfemur -12.512208069993225 5.89177897618247 32.19001372468002
rtibia 25.57792166369105
rfoot -19.611972538470628 -11.145485825275948
rtoes 1.8458757722925832
lowerback 1.0 0.20398502094975435 6.094503588237439
upperback 0.22888214511263894 1.566888274979902 3.254249106630242
thorax -5.167077734395924 0.7442966095319733 1.0412527448636022
lowerneck -17.31838624867823 -2.8528538764224787 -1.3915685910228672
upperneck 21.407948179144146 -3.5981615699246476 0.3750798424660402
head 9.67142256609439 -1.764178716742424 -0.05320606663511282
lclavicle -1.088461092713928e-15 -4.1646882567446222e-16
lhumerus -26.23704665169443 -4.404124520639671 84.0335685497355
lradius 22.584236774231513
lwrist 6.287165697073657
lhand -27.05934659562959 23.507679019710682
lfingers nan
lthumb -0.581805679742652 53.22830319005203
rclavicle -1.2173134476949753e-15 -5.142069662591384e-16
rhumerus -30.391750529768515 -23.527215930298784 -77.21001344997345
rradius 28.361963294606674
rwrist 5.116346915898271
rhand -17.548912048101908 1.0
rfingers nan
rthumb 9.089684098164636 -7.684326293469664
69
root 1.3093327642723973 17.945354135572664 47.92244629972579 -2.7558286418211284 -2.4187035878501044 -7.508102517077303
lfemur -10.958737960494625 0.11509461782978425 -9.994040622490798
ltibia 62.450926021464454
lfoot -7.4168162562731474 1.4858630080667599
ltoes -7.899041235108988
rfemur -9.11518973799423 5.491498148894813 31.597996652761857
rtibia 25.692130776914947
rfoot -19.821267527065842 -11.53182002614827
rtoes 0.7444210063655357
lowerback 1.0 0.44685175419971745 5.969282114583514
upperback 0.2765160756646643 1.847448066461892 3.055005910058277
thorax -5.168343529397059 0.8977786618053412 0.5791619943454459
lowerneck -17.399013469873836 -2.9633495499772864 -1.2132709642306794
upperneck 21.119797914950993 -3.769065362346757 0.44468035914336823
head 9.564993814910252 -1.8320279248104718 -0.07631195172974517
lclavicle -1.0802340772669406e-15 -4.1384387659393165e-16
lhumerus -27.13277414748405 -3.507319454539952 84.24158548126825
lradius 21.486025190908794
lwrist 6.718120521251081
lhand -27.143241845714815 23.361500920113823
lfingers nan
lthumb -0.6469186040674746 53.135514469270845
rclavicle -1.1914622655381243e-15 -5.033866084704867e-16
rhumerus -29.774804391088594 -22.869327574486224 -77.10087003809254
rradius 28.301887276143315
rwrist 4.70907874027851
rhand -17.559721108816227 1.0
rfingers nan
rthumb 9.096509029279586 -7.6131540434650296
70
root 1.2897868391117495 17.92359772966565 47.385655900722085 -3.342357936615444 -1.7334476097367104 -6.297339001798411
lfemur -14.714708377749766 -0.21246299930990764 -11.717886499563473
ltibia 63.13922087950787
lfoot -6.96857381390932 2.2485060558043206
ltoes -9.655029772429945
rfemur -6.301368594257257 4.7086897496555915 30.456065471839707
rtibia 25.934378702387363
rfoot -19.24002666547782 -11.342805204494555
rtoes -0.13465974881321774
lowerback 1.0 0.6825115490195998 5.360965498087577
upperback 0.35779990658748767 2.043560251389247 2.8079151190465326
thorax -5.073621407176778 0.9967136514182735 0.2627147564814778
lowerneck -17.324726652372078 -3.0757402488282497 -1.1430477464311806
upperneck 20.92010836245177 -3.936780243851071 0.533960969774119
head 9.492453805856863 -1.8974387440472713 -0.08516167380444276
lclavicle -1.0763872221659267e-15 -4.131349353855821e-16
lhumerus -28.166861288126725 -2.4172439949234654 84.4804396016496
lradius 20.880647964460607
lwrist 6.978408371178775
lhand -27.12254114428259 23.40197138090884
lfingers nan
lthumb -0.7289713164417093 52.982783368084434
rclavicle -1.1786217642634608e-15 -4.985089867567649e-16
rhumerus -29.133040266996325 -22.055229658987848 -76.99023793397522
rradius 28.321311930981608
rwrist 4.298726391152767
rhand -17.53956428272366 1.0
rfingers nan
rthumb 9.08093559244879 -7.6246924289076725
71
root 1.248917150388746 17.887216979411544 46.73214991728155 -3.6631282671333585 -0.7387610495876926 -6.215597732231386
lfemur -17.698111584441566 -0.7810266673413346 -12.663181215027272
ltibia 61.679045560619535
lfoot -7.744755165766721 2.581093920716548
ltoes -9.451589933674217
rfemur -3.922025542993003 4.056734720861017 29.957032372407248
rtibia 26.340943280085693
rfoot -17.686329442177062 -10.799200771131005
rtoes -0.7929750686571926
lowerback 1.0 0.8863273101529761 5.419452462794183
upperback 0.37813043485638753 2.3066970032089245 2.5748453818291988
thorax -4.999477799225976 1.108777808876451 -0.2712361007908697
lowerneck -17.12742209003439 -3.1722650163143147 -1.181239817798078
upperneck 20.86649729957411 -4.080411373610538 0.624445168442132
head 9.476117588700507 -1.9529863967526473 -0.08562999907946736
lclavicle -1.0750653881203182e-15 -4.13828446541656e-16
lhumerus -29.380555535250622 -1.3379084573475335 84.71541156583702
lradius 20.71445040556484
lwrist 7.155608797959914
lhand -27.24918378958479 23.217842420012495
lfingers nan
lthumb -0.8510386307994952 52.820025569356204
rclavicle -1.166712860173676e-15 -4.928006993927022e-16
rhumerus -28.5238021141052 -21.181424230261385 -76.8865030265346
rradius 28.4262050389847
rwrist 3.7043115571571263
rhand -17.54863100373503 1.0
rfingers nan
rthumb 9.087170177838244 -7.636409752454541
